<svg xmlns="http://www.w3.org/2000/svg" viewBox="162.67 311.83 834 388.08">

 <g>
  <title>Layer 1</title>
  <path stroke="#999999" stroke-width="5" id="svg_2" d="m608.00002,470.71005c23.70697,-59.65568 116.59166,0 0,76.70017c-116.59166,-76.70017 -23.70697,-136.35585 0,-76.70017z" fill="#999999"/>
  <path stroke="#999999" stroke-width="5" id="svg_3" d="m755.00002,359.71005c23.70697,-59.65569 116.59166,0 0,76.70016c-116.59166,-76.70016 -23.70697,-136.35585 0,-76.70016z" fill="#999999"/>
  <path stroke="#999999" stroke-width="5" id="svg_4" d="m455.00002,593.71005c23.70697,-59.65569 116.59166,0 0,76.70016c-116.59166,-76.70016 -23.70697,-136.35585 0,-76.70016z" fill="#999999"/>
  <line id="svg_5" y2="690.33333" x2="359" y1="314.33333" x1="841" stroke-width="5" stroke="#999999" fill="none"/>
  <path id="svg_6" d="m309.83495,383.19614l25.69959,-26.66939l27.30027,28.33025l27.30027,-28.33025l25.69983,26.66939l-27.30028,28.33048l27.30028,28.33048l-25.69983,26.66965l-27.30027,-28.33049l-27.30027,28.33049l-25.69959,-26.66965l27.30005,-28.33048l-27.30005,-28.33048z" stroke-width="5" stroke="#999999" fill="#999999"/>
  <path id="svg_8" d="m711.83495,601.19614l25.69958,-26.66939l27.30028,28.33025l27.30027,-28.33025l25.69983,26.66939l-27.30028,28.33049l27.30028,28.33048l-25.69983,26.66965l-27.30027,-28.3305l-27.30028,28.3305l-25.69958,-26.66965l27.30005,-28.33048l-27.30005,-28.33049z" stroke-width="5" stroke="#999999" fill="#999999"/>
  <path id="svg_9" d="m165.17501,639.41662l0,0c0,-32.0325 26.19134,-57.99997 58.5,-57.99997l0,0c15.51516,0 30.39487,6.11069 41.36574,16.98779c10.97088,10.87711 17.13426,25.62962 17.13426,41.01218l0,0c0,32.03249 -26.19134,57.99997 -58.5,57.99997l0,0c-32.30865,0 -58.5,-25.96748 -58.5,-57.99997zm29.25,0l0,0c0,16.01624 13.09568,28.99998 29.25,28.99998c16.15433,0 29.25,-12.98374 29.25,-28.99998c0,-16.01624 -13.09568,-28.99998 -29.25,-28.99998l0,0c-16.15432,0 -29.25,12.98374 -29.25,28.99998z" stroke-width="5" stroke="#999999" fill="#999999"/>
  <path id="svg_10" d="m165.17501,639.41662l0,0c0,-32.03249 26.19134,-57.99997 58.5,-57.99997l0,0c15.51516,0 30.39487,6.11069 41.36574,16.9878c10.97088,10.87711 17.13426,25.62962 17.13426,41.01217l0,0c0,32.0325 -26.19135,57.99997 -58.5,57.99997l0,0c-32.30865,0 -58.5,-25.96747 -58.5,-57.99997zm29.25,0l0,0c0,16.01625 13.09568,28.99999 29.25,28.99999c16.15433,0 29.25,-12.98374 29.25,-28.99999c0,-16.01624 -13.09568,-28.99998 -29.25,-28.99998l0,0c-16.15432,0 -29.25,12.98374 -29.25,28.99998z" stroke-width="5" stroke="#999999" fill="#999999"/>
  <path id="svg_12" d="m877.17501,437.41662l0,0c0,-32.03249 26.19134,-57.99997 58.5,-57.99997l0,0c15.51516,0 30.39487,6.11069 41.36574,16.9878c10.97088,10.87711 17.13426,25.62962 17.13426,41.01217l0,0c0,32.0325 -26.19135,57.99997 -58.5,57.99997l0,0c-32.30865,0 -58.5,-25.96747 -58.5,-57.99997zm29.25,0l0,0c0,16.01625 13.09568,28.99999 29.25,28.99999c16.15433,0 29.25,-12.98374 29.25,-28.99999c0,-16.01624 -13.09568,-28.99998 -29.25,-28.99998l0,0c-16.15432,0 -29.25,12.98374 -29.25,28.99998z" stroke-width="5" stroke="#999999" fill="#999999"/>
 </g>
</svg>